<svg id="bling" data-name="bling" xmlns="http://www.w3.org/2000/svg" viewBox="0 0 380.63 387.18" fill="#af9155"><path d="M694.41,319.91c-10.18,2.18-20.4,4.19-30.53,6.56-14.48,3.39-28.72,7.5-42.12,14.2-17.88,8.92-30,23-37.61,41.18-8.27,19.68-12.39,40.48-16.5,61.28a15.27,15.27,0,0,1-1.61,4.94c-.85-4.36-1.67-8.72-2.57-13.06-3.7-17.71-7.67-35.33-14.5-52.19-8.83-21.8-24.05-37-45.84-45.8-19.45-7.86-39.86-12-60.33-16.06a13.59,13.59,0,0,1-4.7-1.6c4.21-.84,8.43-1.66,12.64-2.53,17.84-3.65,35.57-7.66,52.53-14.54,21.78-8.84,36.94-24.08,45.74-45.88,8.16-20.22,12.34-41.46,16.53-62.71.15-.75.41-1.47.88-3.15,2.16,10.32,4,19.73,6.11,29.06,3.55,15.39,7.74,30.57,14.88,44.81,8.89,17.74,22.87,29.77,40.93,37.39,19.45,8.2,40,12.33,60.58,16.39,1.86.37,3.71.76,5.57,1.14Z" transform="translate(-438.1 -190.55)"/><path d="M736.51,577.73c-1.88-8.46-3.26-17-5.78-25.25a137.49,137.49,0,0,0-9.57-24.32c-6.52-12.3-18-19-30.89-22.84-11.44-3.42-23.14-6-35-9,5.68-1.18,11.34-2,16.82-3.55,8.74-2.42,17.58-4.75,26-8.06,16-6.28,25.23-18.93,29.95-34.93,3-10.25,5.15-20.77,7.67-31.17.27-1.1.52-2.21,1-4.09,2.14,9.49,3.6,18.33,6.19,26.82a133.19,133.19,0,0,0,9.4,23.65c6.61,12.43,18.22,19,31.24,22.91,10.24,3.05,20.77,5.16,31.16,7.69l4.07.95c-9.47,2.13-18.3,3.59-26.79,6.18a132.73,132.73,0,0,0-23.65,9.4c-12.29,6.55-19,18-22.8,30.9C742.08,554.44,739.47,566.14,736.51,577.73Z" transform="translate(-438.1 -190.55)"/></svg>